inDegrees=no
num_controls=7
num_derivatives=13
num_iterations=111
num_multipliers=7
num_parameters=0
num_slacks=7
num_states=26
objective=6.113359
objective_accelerations=0.632183
objective_balance=0.064073
objective_effort=0.529693
objective_height=4.817376
objective_ligament=0.070034
solver_duration=1163.025690
status=Solve_Succeeded
success=true
DataType=double
version=3
OpenSimVersion=4.4-2022-07-23-0e9fedc
endheader
time	/jointset/ground_pelvis/pelvis_tilt/value	/jointset/ground_pelvis/pelvis_tx/value	/jointset/ground_pelvis/pelvis_ty/value	/jointset/hip_l/hip_flexion_l/value	/jointset/hip_l/hip_adduction_l/value	/jointset/hip_l/hip_rotation_l/value	/jointset/back/lumbar_extension/value	/jointset/patellofemoral_l/patellar_flexion_l/value	/jointset/knee_l/knee_flexion_l/value	/jointset/knee_l/knee_adduction_l/value	/jointset/knee_l/knee_rotation_l/value	/jointset/ankle_l/ankle_angle_l/value	/jointset/subtalar_l/subtalar_angle_l/value	/jointset/ground_pelvis/pelvis_tilt/speed	/jointset/ground_pelvis/pelvis_tx/speed	/jointset/ground_pelvis/pelvis_ty/speed	/jointset/hip_l/hip_flexion_l/speed	/jointset/hip_l/hip_adduction_l/speed	/jointset/hip_l/hip_rotation_l/speed	/jointset/back/lumbar_extension/speed	/jointset/patellofemoral_l/patellar_flexion_l/speed	/jointset/knee_l/knee_flexion_l/speed	/jointset/knee_l/knee_adduction_l/speed	/jointset/knee_l/knee_rotation_l/speed	/jointset/ankle_l/ankle_angle_l/speed	/jointset/subtalar_l/subtalar_angle_l/speed	/forceset/tau_hip_flexion_l	/forceset/tau_hip_adduction_l	/forceset/tau_hip_rotation_l	/forceset/tau_knee_flexion_l	/forceset/tau_ankle_angle_l	/forceset/tau_subtalar_angle_l	/forceset/tau_lumbar_extension	lambda_cid13_p0	lambda_cid13_p1	lambda_cid13_p2	lambda_cid13_p3	lambda_cid13_p4	lambda_cid13_p5	lambda_cid14_p0	/jointset/ground_pelvis/pelvis_tilt/accel	/jointset/ground_pelvis/pelvis_tx/accel	/jointset/ground_pelvis/pelvis_ty/accel	/jointset/hip_l/hip_flexion_l/accel	/jointset/hip_l/hip_adduction_l/accel	/jointset/hip_l/hip_rotation_l/accel	/jointset/back/lumbar_extension/accel	/jointset/patellofemoral_l/patellar_flexion_l/accel	/jointset/knee_l/knee_flexion_l/accel	/jointset/knee_l/knee_adduction_l/accel	/jointset/knee_l/knee_rotation_l/accel	/jointset/ankle_l/ankle_angle_l/accel	/jointset/subtalar_l/subtalar_angle_l/accel	gamma_cid13_p0	gamma_cid13_p1	gamma_cid13_p2	gamma_cid13_p3	gamma_cid13_p4	gamma_cid13_p5	gamma_cid14_p0
0	-0.03682252500013872	0.05667749947263803	0.920341594292189	0.3085811930696054	-0.2956404110857633	-0.3016060576546355	-0.3879500408040475	0.2499276582270526	0.249927658227084	-0.1745329100036539	-0.1745317716215841	-0.0008036543073733089	0.0004376555293625253	0	0	0	0	0	0	0	0	0	0	0	0	0	0.09358635721612885	-0.03909244584794604	-0.02408904490989719	-0.2745020845413155	0.2395411787006742	-0.04194773780045223	-0.01343776731960848	32.74398769217369	10.05042864891492	0.7238656403073993	0.9809890295188199	-617.4862588162265	-55.79428983023435	-23.19688896387035	-1.352715672836241	-2.042510392548162	-1.000439941300379	10.10895345307092	-0.8810389755870454	3.567446289092363	-7.521756709194494	10.08900492413498	10.08900492414198	1.415784465015878	-0.07275272357160455	1.916637304340857	-0.2939992699825976	-1.080208108226108e-08	1.681007729960512e-07	1.364681380943967e-07	-1.568861819167335e-08	1.470555397442945e-07	-4.349119897088474e-08	-5.594669991709244e-09
0.01	-0.03688606861111565	0.05657712737513688	0.9202927630418833	0.3090736866152239	-0.295684006563356	-0.30142717494189	-0.3883234443299992	0.2504214992054179	0.2504214992054857	-0.1744649663568123	-0.1745314511621496	-0.0007099023524429835	0.000422701653038563	-0.01265511765437808	-0.01991802526499933	-0.00971860056992031	0.09794898651619253	-0.008612722904299382	0.03556040412062385	-0.07402830653934941	0.09824633645639276	0.09824633645640554	0.01362366046793776	7.076735212899147e-05	0.01872824851881083	-0.002886290026108042	0.08582195386524437	-0.05707850745687979	-0.02290326482566478	-0.2676862408478277	0.2256194980870172	-0.01941979813950908	-0.006205628675253563	28.97638972874326	1.059115484985746	2.005531989580618	0.9317584451680614	-621.0312559676787	-74.11774997429099	-23.20256159087637	-1.21388165122361	-1.942992593490607	-0.95039328002458	9.555403134242329	-0.8354818546556992	3.517904905421489	-7.245507830266088	9.614170242861997	9.614170242860062	1.34093998333434	0.04801027937681447	1.847601536898564	-0.2703137921620327	-3.650992430313328e-08	1.955064144925877e-07	1.770120695935513e-07	2.293337132973874e-08	3.857833875650098e-09	-6.640846771197392e-08	-4.771604587697962e-09
0.02	-0.03707455776648544	0.0562822662249861	0.9201481811528419	0.3105291764026756	-0.2958105478513274	-0.3008991747015264	-0.3894175589621209	0.2518821479956094	0.2518821479956095	-0.174259729476017	-0.1745302192662711	-0.0004295313300638251	0.0003820108918062727	-0.02498910888819773	-0.03889781052992602	-0.01915012774720164	0.1925992483664462	-0.01658916208066756	0.06982350551619815	-0.1441422212372643	0.1933615623715988	0.1933615623715996	0.02745864676187483	0.0001822872951315155	0.03732381348752101	-0.005147376981720288	0.07805755051383605	-0.07506456906616507	-0.02171748474116869	-0.2608703971548332	0.2116978174730607	0.003108141520964751	0.001026509969016715	25.28680343489713	-7.945050340177581	3.28832678544926	0.7564840525000961	-623.4111679959238	-92.3447634319009	-23.21914452040703	-1.288490388725488	-1.854862392532767	-0.9430252627725723	9.449208519882941	-0.7537822300009424	3.307985744082447	-6.73887834090808	9.462782815897471	9.462782815899519	1.458049630215428	-0.06460220539688934	1.890100594321661	-0.168958655883253	-6.221776752400548e-08	2.229120559891243e-07	2.175560010927058e-07	6.155536085115083e-08	-1.393398719929943e-07	-8.932573645306311e-08	-3.948539183686681e-09
0.03	-0.0373847908359844	0.05580214215643299	0.9199103468936789	0.3129154507488198	-0.2960142729739075	-0.3000350816403565	-0.3911947253726665	0.2542794431181296	0.2542794431181258	-0.173916270156924	-0.1745282737832022	3.617489749743447e-05	0.0003212176346873272	-0.03697658708229939	-0.05698577176810649	-0.02840117142362581	0.2841399231197873	-0.02412117894188595	0.1028258841930772	-0.2108185348006512	0.2856723836110233	0.285672383611036	0.04111888588449721	0.0002026727540055368	0.05579583917051536	-0.00698237861723138	0.07180154948047933	-0.06401940202246084	-0.0210893718335648	-0.2564215634073324	0.2104529566132506	-0.003976749575160795	0.006738650269083098	24.58342506297814	-4.849460745988013	2.914209108910789	0.3136251837796301	-624.8168079182163	-84.93537184142187	-23.24582455843942	-1.141745909934101	-1.764565808123346	-0.9138394673283531	8.929131573751027	-0.7477721515503776	3.270958140423712	-6.56112895479927	9.051470785548824	9.05147078554916	1.302921281205063	0.0347686368446781	1.822516901545758	-0.1864966193794579	-9.064153943703263e-08	1.70978724330491e-07	3.020373288492232e-07	8.178367302902069e-08	-2.489929639480652e-07	-1.562857085109814e-07	-1.852406748546841e-08
